<svg id="Capa_1" enable-background="new 0 0 512.021 512.021" height="512" viewBox="0 0 512.021 512.021" width="512" xmlns="http://www.w3.org/2000/svg"><g><path d="m202.489 436.956c0-12.682-8.501-23.372-20.113-26.701-4.112-9.839-14.13-16.595-25.625-15.831-12.99.864-23.458 11.573-24.053 24.578-.186 4.064.569 7.931 2.064 11.405 1.115 2.591.944 5.515-.305 8.044-1.934 3.916-2.905 8.392-2.605 13.12.81 12.738 11.089 23.139 23.818 24.085 8.642.642 16.467-2.968 21.602-8.954 1.223-1.426 2.864-2.432 4.678-2.92 11.831-3.186 20.539-13.988 20.539-26.826z" fill="#f8d4a5"/><path d="m316.328 370.522c-13.104-5.242-19.478-20.113-14.236-33.217 5.242-13.105 20.113-19.478 33.217-14.236 7.243 2.897 24.819 7.525 44.759 6.538 14.094-.734 26.094 10.151 26.798 24.245.705 14.096-10.15 26.095-24.245 26.798-24.101 1.207-49.274-3.319-66.293-10.128z" fill="#fbf1cf"/><path d="m116.472 351.473c-12.115-7.239-16.067-22.929-8.827-35.044 7.222-12.086 22.051-14.464 34.96-8.878 11.256 4.871 26.158 4.255 32.896 2.729 13.081-4.507 27.438 2.239 32.273 15.283 4.905 13.233-1.846 27.938-15.079 32.843-16.169 5.99-56.534 4.832-76.223-6.933z" fill="#fbf1cf"/><path d="m179.283 497.03c-9.978-9.98-9.978-26.161 0-36.14l26.789-26.79c9.98-9.98 26.161-9.98 36.14 0 9.978 9.98 9.978 26.161 0 36.14l-26.79 26.789c-9.976 9.978-26.159 9.981-36.139.001z" fill="#fae0bd"/><path d="m296.638 497.03-26.79-26.789c-9.978-9.98-9.978-26.161 0-36.14 9.98-9.98 26.161-9.98 36.14 0l26.79 26.79c9.978 9.98 9.978 26.161 0 36.14-9.977 9.976-26.16 9.979-36.14-.001z" fill="#fae0bd"/><path d="m256.031 472.73c53.79 0 97.396-34.753 97.396-83.929 0-72.289-43.606-110.801-97.396-110.801s-97.396 38.512-97.396 110.801c-.001 49.176 43.605 83.929 97.396 83.929z" fill="#fbf1cf"/><path d="m256.031 362.316c35.569 0 65.973-6.044 90.867-18.003-14.091-43.485-49.459-66.313-90.867-66.313s-76.776 22.828-90.867 66.312c24.894 11.96 55.298 18.004 90.867 18.004z" fill="#fae0bd"/><path d="m145.561 23.181c-20.89-20.89-54.759-20.89-75.649 0s-20.89 54.759 0 75.649c32.633 32.633 86.636 57.792 111.376 123.989l58.487-36.953c-13.373-56.166-50.417-118.888-94.214-162.685z" fill="#fbf1cf"/><path d="m183.216 159.613c-35.273-90.915-92.358-121.711-126.307-115.268-6.062 18.545-1.738 39.745 13.003 54.485 32.633 32.633 86.636 57.792 111.376 123.989l18.963-11.981c-3.442-13.377-8.859-30.152-17.035-51.225z" fill="#eda1ab"/><path d="m146.615 93.182c-2.303 18.771-11.108 36.935-25.47 48.567 23.296 19.842 46.301 44.031 60.144 81.071l18.964-11.981c-3.443-13.377-8.86-30.152-17.036-51.226-10.63-27.397-23.242-49.327-36.602-66.431z" fill="#e68a97"/><path d="m366.5 23.181c20.89-20.89 54.759-20.89 75.649 0s20.89 54.759 0 75.649c-32.633 32.633-86.636 57.792-111.376 123.989l-58.487-36.953c13.373-56.166 50.417-118.888 94.214-162.685z" fill="#fbf1cf"/><path d="m328.845 159.613c35.273-90.914 92.358-121.711 126.307-115.267 6.062 18.545 1.738 39.745-13.003 54.485-32.633 32.633-86.636 57.792-111.376 123.989l-18.963-11.981c3.442-13.378 8.859-30.153 17.035-51.226z" fill="#eda1ab"/><path d="m365.447 93.182c2.302 18.771 11.107 36.935 25.47 48.567-23.296 19.842-46.301 44.031-60.144 81.071l-18.964-11.981c3.443-13.377 8.86-30.152 17.036-51.226 10.629-27.397 23.241-49.327 36.602-66.431z" fill="#e68a97"/><path d="m390.419 222.82c0-62.682-60.168-113.496-134.388-113.496s-134.389 50.813-134.389 113.496 40.497 109.496 134.388 109.496 134.389-46.814 134.389-109.496z" fill="#fbf1cf"/><g><g fill="#eda1ab"><ellipse cx="171.599" cy="244.78" rx="31.153" ry="24.809"/><ellipse cx="340.462" cy="244.78" rx="31.154" ry="24.809"/></g></g><path d="m283.219 85.221c-1.586.463-3.317.057-4.559-1.032-6.044-5.3-13.959-8.516-22.629-8.516-8.669 0-16.584 3.216-22.627 8.515-1.243 1.09-2.976 1.496-4.563 1.033-16.161-4.718-32.98 7.365-32.98 24.807 0 17.46 16.831 29.522 32.982 24.807 1.586-.463 3.317-.057 4.559 1.032 6.044 5.3 13.959 8.516 22.629 8.516 8.669 0 16.583-3.216 22.627-8.514 1.243-1.09 2.975-1.496 4.563-1.033 16.161 4.718 32.98-7.365 32.98-24.807-.001-17.462-16.831-29.524-32.982-24.808z" fill="#fae0bd"/><path d="m189.755 200.662c-4.143 0-7.5 3.357-7.5 7.5v12.735c0 4.143 3.357 7.5 7.5 7.5s7.5-3.357 7.5-7.5v-12.735c0-4.142-3.357-7.5-7.5-7.5zm257.698-182.783c-23.836-23.836-62.415-23.841-86.255-.001-18.661 18.66-36.372 40.982-51.604 64.958-7.961-5.626-17.693-7.495-27.061-5.195-7.465-6.115-16.82-9.468-26.502-9.468-9.68 0-19.034 3.352-26.502 9.468-9.363-2.299-19.098-.43-27.06 5.197-15.232-23.977-32.943-46.299-51.604-64.959-23.836-23.836-62.415-23.841-86.255-.001-18.704 18.703-23.244 47.111-11.298 70.692 1.872 3.694 6.386 5.172 10.08 3.301 3.695-1.872 5.173-6.385 3.301-10.08-4.925-9.72-6.125-20.527-3.903-30.633 13.59-.986 29.934 4.458 45.652 15.379 20.365 14.148 38.949 36.65 53.994 65.308-7.517 5.626-14.333 11.937-20.339 18.83-17.915-17.567-37.01-31.125-53.158-44.706-3.17-2.666-7.901-2.256-10.567.913-2.666 3.171-2.257 7.901.913 10.567 16.725 14.063 36.013 27.705 53.61 45.221-12.277 18.253-18.753 38.906-18.753 60.151 0 32.12 10.233 59.352 29.661 79.219-.047-.029-.101-.058-.144-.086-14.125-11.189-34.776-8.951-46.167 5.06-11.525 14.174-9.383 34.973 4.794 46.499 12.544 10.2 33.096 16.239 49.598 18.832-.465 4.969-.702 10.089-.733 15.341-20.463 4.584-31.444 26.696-23.278 45.688.216.5.165 1.142-.14 1.759-12.188 24.676 9.416 53.115 36.775 47.354.771 7.254 3.924 14.3 9.471 19.849 12.917 12.915 33.828 12.92 46.748 0l22.734-22.734c8.332.81 16.463.866 25.156.017l22.717 22.716c12.903 12.905 33.829 12.919 46.748 0 12.886-12.888 12.886-33.857 0-46.746l-4.284-4.284c1.634-1.546 3.215-3.14 4.727-4.796 2.793-3.06 2.576-7.803-.482-10.596-3.059-2.793-7.802-2.577-10.596.482-17.552 19.228-44.271 28.837-71.417 28.837-49.927 0-89.896-31.766-89.896-76.428 0-24.322 5.054-45.126 15.001-61.977 20.694 8.635 45.741 12.991 74.896 12.991s54.202-4.355 74.896-12.991c9.947 16.851 15.001 37.655 15.001 61.977 0 6.759-.915 13.371-2.72 19.653-1.145 3.982 1.156 8.136 5.137 9.279 3.972 1.143 8.134-1.148 9.279-5.137 2.392-8.324 3.334-16.264 3.289-24.821 7.479.582 14.583.741 22.083.365 18.245-.909 32.275-16.416 31.361-34.662-.912-18.261-16.446-32.313-34.659-31.362-12.198.604-24.057-1.087-32.862-3.296 34.603-20.712 51.083-55.168 51.083-96.001 0-21.245-6.475-41.898-18.752-60.151 22.941-22.837 49.031-39.28 68.286-58.535 11.521-11.521 17.865-26.836 17.865-43.128s-6.346-31.609-17.865-43.129zm-125.394 442.898 5.416 5.415c7.038 7.04 7.038 18.494 0 25.533-7.056 7.056-18.477 7.057-25.534 0l-15.237-15.236c12.954-3.255 24.942-8.57 35.355-15.712zm58.399-123.678c9.946-.522 18.419 7.165 18.917 17.13.497 9.967-7.163 18.435-17.13 18.933-7.105.356-14.498.188-22.04-.481-1.247-13.607-4.129-26.127-8.595-37.506 7.821 1.405 17.786 2.467 28.848 1.924zm-8.654-308.614c20.731-20.731 55.224-17.055 71.186 7.609-15.221.718-31.794 6.914-47.929 18.122-21.998 15.283-41.932 39.133-57.978 69.268-4.47-2.653-9.129-5.087-13.951-7.295 1.337-7.236.333-14.852-3.205-21.607 15.158-24.465 33.025-47.246 51.877-66.097zm-145.067 63.934c4.067 1.188 8.408.218 11.611-2.593 10.128-8.879 25.258-8.862 35.368.002 3.204 2.81 7.542 3.778 11.604 2.592h.001c11.499-3.356 23.379 5.286 23.379 17.607 0 12.306-11.871 20.964-23.376 17.607-4.066-1.188-8.405-.218-11.611 2.593-10.128 8.879-25.258 8.862-35.368-.002-3.16-2.77-7.486-3.793-11.605-2.592-11.495 3.355-23.379-5.281-23.379-17.606 0-12.296 11.861-20.972 23.376-17.608zm-109.737-38.203c-16.134-11.208-32.707-17.406-47.927-18.123 15.98-24.714 50.505-28.287 71.185-7.607 18.852 18.851 36.719 41.632 51.877 66.098-2.451 4.68-3.774 9.941-3.774 15.444 0 2.095.198 4.154.569 6.161-4.822 2.208-9.481 4.641-13.951 7.295-16.046-30.136-35.981-53.986-57.979-69.268zm67.586 411.978 5.417-5.417c10.448 7.171 22.426 12.481 35.342 15.724l-15.226 15.226c-7.055 7.055-18.476 7.055-25.533 0-7.038-7.04-7.038-18.494 0-25.533zm-6.325-14.889c-2.755 3.079-7.665 6.447-11.117 14.259-11.807 7.158-26.94-.852-27.805-14.469-.206-3.238.432-6.462 1.844-9.322 2.253-4.563 2.425-9.786.47-14.329-1.099-2.555-1.591-5.278-1.461-8.098.34-7.438 5.335-13.882 12.093-16.375 3.026 18.383 11.967 35.085 25.976 48.334zm-24.252-93.805c-15.15-2.385-32.574-7.75-42.261-15.627-7.74-6.294-8.914-17.654-2.617-25.397 6.257-7.694 17.625-8.891 25.344-2.662 5.865 4.692 23.615 8.195 31.747 8.918-5.651 10.446-9.737 22.055-12.213 34.768zm228.909-134.68c0 58.561-37.216 101.996-126.888 101.996-89.844 0-126.889-43.596-126.889-101.996 0-41.002 27.677-75.348 65.798-92.887 7.732 10.314 21.14 15.786 34.589 12.481 7.465 6.115 16.82 9.468 26.502 9.468 9.681 0 19.036-3.353 26.502-9.468 13.388 3.288 26.818-2.122 34.587-12.481 38.08 17.519 65.799 51.848 65.799 92.887zm53.927-129.292c-18.078 18.077-43.574 34.289-66.882 57.145-6.006-6.893-12.821-13.203-20.339-18.829 15.046-28.658 33.63-51.16 53.995-65.308 15.711-10.915 32.048-16.36 45.633-15.38.695 3.201 1.064 6.497 1.064 9.851.001 12.284-4.783 23.833-13.471 32.521zm-180.814 127.37c7.295 0 17.473-6.417 17.473-13.061 0-4.855-7.023-6.566-17.473-6.566s-17.473 1.71-17.473 6.566c0 6.643 10.178 13.061 17.473 13.061zm22.399 15.294c-3.123-2.722-7.861-2.396-10.581.728-2.983 3.423-7.291 5.387-11.818 5.387s-8.835-1.964-11.818-5.387c-2.723-3.123-7.459-3.448-10.581-.728-3.123 2.721-3.449 7.459-.728 10.581 5.833 6.694 14.263 10.533 23.127 10.533s17.294-3.839 23.127-10.533c2.721-3.122 2.395-7.861-.728-10.581zm43.876-35.53c-4.143 0-7.5 3.357-7.5 7.5v12.735c0 4.143 3.357 7.5 7.5 7.5s7.5-3.357 7.5-7.5v-12.735c0-4.142-3.357-7.5-7.5-7.5z"/></g></svg>